<svg width="1200" height="630" viewBox="0 0 1200 630" fill="none" xmlns="http://www.w3.org/2000/svg">
  <rect width="1200" height="630" fill="white" />
  <path d="M322.095 347.305V282.695C322.092 279.862 321.343 277.081 319.922 274.628C318.502 272.176 316.46 270.139 314.001 268.723L257.345 236.418C254.884 235 252.093 234.254 249.251 234.254C246.41 234.254 243.618 235 241.157 236.418L184.501 268.723C182.043 270.139 180.001 272.176 178.58 274.628C177.159 277.081 176.41 279.862 176.407 282.695V347.305C176.41 350.138 177.159 352.92 178.58 355.372C180.001 357.824 182.043 359.861 184.501 361.277L241.157 393.582C243.618 395 246.41 395.746 249.251 395.746C252.093 395.746 254.884 395 257.345 393.582L314.001 361.277C316.46 359.861 318.502 357.824 319.922 355.372C321.343 352.92 322.092 350.138 322.095 347.305Z" stroke="#006ADC" stroke-width="25" stroke-linecap="round" stroke-linejoin="round" />
  <path d="M178.593 274.296L249.252 315.081L319.91 274.296" stroke="#006ADC" stroke-width="25" stroke-linecap="round" stroke-linejoin="round" />
  <path d="M249.251 396.409V315" stroke="#006ADC" stroke-width="25" stroke-linecap="round" stroke-linejoin="round" />
  <path d="M466.725 367.001H447.569V314.242C447.569 312.119 447.013 310.553 445.899 309.542C444.885 308.43 443.517 307.875 441.792 307.875C439.766 307.875 438.143 308.481 436.927 309.694C435.812 310.907 435.257 312.726 435.257 315.151V367.001H416.1V314.242C416.1 312.119 415.491 310.553 414.275 309.542C413.16 308.43 411.792 307.875 410.17 307.875C408.346 307.875 406.826 308.481 405.609 309.694C404.393 310.907 403.785 312.726 403.785 315.151V367.001H384.629V291.804H403.785V299.081H406.522C407.13 296.352 408.498 294.129 410.626 292.411C412.856 290.591 415.745 289.682 419.292 289.682C422.637 289.682 425.475 290.591 427.806 292.411C430.137 294.129 431.708 296.352 432.519 299.081H435.257C436.066 296.352 437.74 294.129 440.274 292.411C442.907 290.591 446.153 289.682 450.002 289.682C455.07 289.682 459.125 291.4 462.165 294.836C465.207 298.172 466.725 302.821 466.725 308.784V367.001Z" fill="black" />
  <path d="M532.908 356.085C530.878 360.836 528.042 364.222 524.393 366.243C520.745 368.163 516.486 369.123 511.621 369.123C507.06 369.123 502.754 368.264 498.699 366.546C494.748 364.828 491.248 362.301 488.209 358.966C485.17 355.63 482.737 351.588 480.911 346.837C479.19 342.087 478.326 336.68 478.326 330.616V328.19C478.326 322.227 479.19 316.87 480.911 312.119C482.636 307.369 484.967 303.326 487.904 299.991C490.845 296.656 494.24 294.129 498.092 292.411C502.043 290.591 506.25 289.682 510.709 289.682C516.082 289.682 520.389 290.591 523.631 292.411C526.978 294.23 529.611 297.06 531.539 300.9H534.276V291.804H553.432V344.26C553.432 347.292 554.798 348.808 557.536 348.808H560.425V367.001H547.351C543.902 367.001 541.066 365.99 538.837 363.969C536.709 361.948 535.642 359.319 535.642 356.085H532.908ZM515.879 350.931C521.453 350.931 525.915 349.111 529.259 345.473C532.603 341.733 534.276 336.68 534.276 330.312V328.493C534.276 322.126 532.603 317.123 529.259 313.484C525.915 309.744 521.453 307.875 515.879 307.875C510.306 307.875 505.844 309.744 502.5 313.484C499.156 317.123 497.482 322.126 497.482 328.493V330.312C497.482 336.68 499.156 341.733 502.5 345.473C505.844 349.111 510.306 350.931 515.879 350.931Z" fill="black" />
  <path d="M573.546 291.804H605.474V302.72H608.209C609.628 298.576 612.01 295.392 615.354 293.169C618.8 290.844 622.906 289.682 627.67 289.682C635.171 289.682 641.202 292.057 645.762 296.807C650.322 301.457 652.603 308.582 652.603 318.184V321.519L632.84 323.338V321.216C632.84 317.072 631.776 313.787 629.645 311.361C627.517 308.835 624.326 307.571 620.067 307.571C615.812 307.571 612.467 309.037 610.035 311.968C607.602 314.899 606.386 319.093 606.386 324.551V348.808H623.716V367.001H571.723V348.808H587.23V309.997H573.546V291.804Z" fill="black" />
  <path d="M695.522 319.397H699.171L719.239 291.804H740.221V292.714L715.895 327.129V329.858L742.654 366.091V367.001H720.76L699.171 337.589H695.522V367.001H676.366V260.877H695.522V319.397Z" fill="black" />
  <path d="M779.337 367.001H760.181V260.877H779.337V302.72H782.074C784.1 298.576 787.041 295.393 790.893 293.169C794.745 290.844 799.658 289.682 805.638 289.682C810.1 289.682 814.305 290.541 818.259 292.259C822.314 293.977 825.811 296.504 828.748 299.84C831.79 303.074 834.172 307.066 835.894 311.817C837.72 316.567 838.631 321.974 838.631 328.038V330.767C838.631 336.932 837.77 342.39 836.046 347.141C834.322 351.891 831.991 355.934 829.053 359.269C826.112 362.503 822.616 364.98 818.563 366.698C814.61 368.315 810.303 369.124 805.638 369.124C802.193 369.124 799.204 368.77 796.67 368.062C794.136 367.355 791.906 366.395 789.982 365.182C788.156 363.969 786.584 362.605 785.266 361.088C784.05 359.471 782.986 357.804 782.074 356.085H779.337V367.001ZM799.407 350.931C805.387 350.931 810.202 349.112 813.851 345.473C817.598 341.733 819.475 336.68 819.475 330.312V328.493C819.475 322.126 817.598 317.123 813.851 313.484C810.202 309.744 805.387 307.875 799.407 307.875C793.427 307.875 788.562 309.795 784.812 313.636C781.163 317.375 779.337 322.328 779.337 328.493V330.312C779.337 336.478 781.163 341.481 784.812 345.321C788.562 349.061 793.427 350.931 799.407 350.931Z" fill="black" />
  <path d="M930.354 330.312C930.354 336.579 929.29 342.137 927.159 346.989C925.031 351.739 922.144 355.782 918.495 359.117C914.846 362.352 910.639 364.828 905.875 366.546C901.213 368.264 896.297 369.123 891.13 369.123C885.96 369.123 880.993 368.264 876.229 366.546C871.567 364.828 867.41 362.352 863.762 359.117C860.113 355.782 857.226 351.739 855.098 346.989C852.967 342.137 851.903 336.579 851.903 330.312V328.493C851.903 322.328 852.967 316.87 855.098 312.119C857.226 307.268 860.113 303.175 863.762 299.839C867.41 296.504 871.567 293.977 876.229 292.259C880.993 290.541 885.96 289.682 891.13 289.682C896.297 289.682 901.213 290.541 905.875 292.259C910.639 293.977 914.846 296.504 918.495 299.839C922.144 303.175 925.031 307.268 927.159 312.119C929.29 316.87 930.354 322.328 930.354 328.493V330.312ZM891.13 350.931C893.864 350.931 896.449 350.476 898.882 349.566C901.315 348.657 903.442 347.343 905.268 345.624C907.091 343.906 908.511 341.834 909.524 339.409C910.639 336.882 911.198 334.052 911.198 330.919V327.886C911.198 324.753 910.639 321.974 909.524 319.548C908.511 317.022 907.091 314.899 905.268 313.181C903.442 311.462 901.315 310.149 898.882 309.239C896.449 308.329 893.864 307.875 891.13 307.875C888.393 307.875 885.807 308.329 883.375 309.239C880.942 310.149 878.814 311.462 876.989 313.181C875.166 314.899 873.695 317.022 872.581 319.548C871.567 321.974 871.059 324.753 871.059 327.886V330.919C871.059 334.052 871.567 336.882 872.581 339.409C873.695 341.834 875.166 343.906 876.989 345.624C878.814 347.343 880.942 348.657 883.375 349.566C885.807 350.476 888.393 350.931 891.13 350.931Z" fill="black" />
  <path d="M999.575 291.804H1020.71L1002.46 327.128V329.858L1021.77 367.001H999.724L985.586 337.589H982.851L968.71 367.001H946.667L965.976 329.858V327.128L947.578 291.804H968.862L982.851 319.397H985.586L999.575 291.804Z" fill="black" />
</svg>