<svg width="960" height="980" viewBox="0 0 960 980" fill="none" xmlns="http://www.w3.org/2000/svg">
  <g filter="url(#filter0_ddd_955_1232)">
    <circle cx="480" cy="400" r="400" fill="white" />
    <path d="M741.75 516.333V283.667C741.74 273.466 739.047 263.448 733.942 254.617C728.838 245.786 721.5 238.453 712.667 233.353L509.083 117.019C500.241 111.914 490.21 109.226 480 109.226C469.79 109.226 459.759 111.914 450.917 117.019L247.333 233.353C238.5 238.453 231.162 245.786 226.058 254.617C220.953 263.448 218.26 273.466 218.25 283.667V516.333C218.26 526.534 220.953 536.552 226.058 545.383C231.162 554.214 238.5 561.547 247.333 566.648L450.917 682.981C459.759 688.086 469.79 690.774 480 690.774C490.21 690.774 500.241 688.086 509.083 682.981L712.667 566.648C721.5 561.547 728.838 554.214 733.942 545.383C739.047 536.552 741.74 526.534 741.75 516.333Z" stroke="#006ADC" stroke-width="50" stroke-linecap="round" stroke-linejoin="round" />
    <path d="M226.103 253.42L480 400.291L733.897 253.42" stroke="#006ADC" stroke-width="50" stroke-linecap="round" stroke-linejoin="round" />
    <path d="M480 693.16V400" stroke="#006ADC" stroke-width="50" stroke-linecap="round" stroke-linejoin="round" />
  </g>
  <defs>
    <filter id="filter0_ddd_955_1232" x="0" y="0" width="960" height="980" filterUnits="userSpaceOnUse" color-interpolation-filters="sRGB">
      <feFlood flood-opacity="0" result="BackgroundImageFix" />
      <feColorMatrix in="SourceAlpha" type="matrix" values="0 0 0 0 0 0 0 0 0 0 0 0 0 0 0 0 0 0 127 0" result="hardAlpha" />
      <feOffset dy="8.14815" />
      <feGaussianBlur stdDeviation="3.25926" />
      <feColorMatrix type="matrix" values="0 0 0 0 0 0 0 0 0 0 0 0 0 0 0 0 0 0 0.0274815 0" />
      <feBlend mode="normal" in2="BackgroundImageFix" result="effect1_dropShadow_955_1232" />
      <feColorMatrix in="SourceAlpha" type="matrix" values="0 0 0 0 0 0 0 0 0 0 0 0 0 0 0 0 0 0 127 0" result="hardAlpha" />
      <feOffset dy="38.5185" />
      <feGaussianBlur stdDeviation="12.7407" />
      <feColorMatrix type="matrix" values="0 0 0 0 0 0 0 0 0 0 0 0 0 0 0 0 0 0 0.0425185 0" />
      <feBlend mode="normal" in2="effect1_dropShadow_955_1232" result="effect2_dropShadow_955_1232" />
      <feColorMatrix in="SourceAlpha" type="matrix" values="0 0 0 0 0 0 0 0 0 0 0 0 0 0 0 0 0 0 127 0" result="hardAlpha" />
      <feOffset dy="100" />
      <feGaussianBlur stdDeviation="40" />
      <feColorMatrix type="matrix" values="0 0 0 0 0 0 0 0 0 0 0 0 0 0 0 0 0 0 0.07 0" />
      <feBlend mode="normal" in2="effect2_dropShadow_955_1232" result="effect3_dropShadow_955_1232" />
      <feBlend mode="normal" in="SourceGraphic" in2="effect3_dropShadow_955_1232" result="shape" />
    </filter>
  </defs>
</svg>