<svg width="169" height="29" viewBox="0 0 169 29" fill="none" xmlns="http://www.w3.org/2000/svg">
  <path d="M22.0399 28H16.9999V14.08C16.9999 13.52 16.8533 13.1067 16.5599 12.84C16.2933 12.5467 15.9333 12.4 15.4799 12.4C14.9466 12.4 14.5199 12.56 14.1999 12.88C13.9066 13.2 13.7599 13.68 13.7599 14.32V28H8.71994V14.08C8.71994 13.52 8.55994 13.1067 8.23994 12.84C7.94661 12.5467 7.58661 12.4 7.15994 12.4C6.67994 12.4 6.27994 12.56 5.95994 12.88C5.63994 13.2 5.47994 13.68 5.47994 14.32V28H0.439941V8.16H5.47994V10.08H6.19994C6.35994 9.36 6.71994 8.77333 7.27994 8.32C7.86661 7.84 8.62661 7.6 9.55994 7.6C10.4399 7.6 11.1866 7.84 11.7999 8.32C12.4133 8.77333 12.8266 9.36 13.0399 10.08H13.7599C13.9733 9.36 14.4133 8.77333 15.0799 8.32C15.7733 7.84 16.6266 7.6 17.6399 7.6C18.9733 7.6 20.0399 8.05333 20.8399 8.96C21.6399 9.84 22.0399 11.0667 22.0399 12.64V28Z" fill="black" />
  <path d="M39.4521 25.12C38.9188 26.3733 38.1721 27.2667 37.2121 27.8C36.2521 28.3067 35.1321 28.56 33.8521 28.56C32.6521 28.56 31.5188 28.3333 30.4521 27.88C29.4121 27.4267 28.4921 26.76 27.6921 25.88C26.8921 25 26.2521 23.9333 25.7721 22.68C25.3188 21.4267 25.0921 20 25.0921 18.4V17.76C25.0921 16.1867 25.3188 14.7733 25.7721 13.52C26.2255 12.2667 26.8388 11.2 27.6121 10.32C28.3855 9.44 29.2788 8.77333 30.2921 8.32C31.3321 7.84 32.4388 7.6 33.6121 7.6C35.0255 7.6 36.1588 7.84 37.0121 8.32C37.8921 8.8 38.5855 9.54667 39.0921 10.56H39.8121V8.16H44.8521V22C44.8521 22.8 45.2121 23.2 45.9321 23.2H46.6921V28H43.2521C42.3455 28 41.5988 27.7333 41.0121 27.2C40.4521 26.6667 40.1721 25.9733 40.1721 25.12H39.4521ZM34.9721 23.76C36.4388 23.76 37.6121 23.28 38.4921 22.32C39.3721 21.3333 39.8121 20 39.8121 18.32V17.84C39.8121 16.16 39.3721 14.84 38.4921 13.88C37.6121 12.8933 36.4388 12.4 34.9721 12.4C33.5055 12.4 32.3321 12.8933 31.4521 13.88C30.5721 14.84 30.1321 16.16 30.1321 17.84V18.32C30.1321 20 30.5721 21.3333 31.4521 22.32C32.3321 23.28 33.5055 23.76 34.9721 23.76Z" fill="black" />
  <path d="M50.1443 8.16H58.5443V11.04H59.2643C59.6376 9.94667 60.2643 9.10667 61.1443 8.52C62.051 7.90667 63.131 7.6 64.3843 7.6C66.3576 7.6 67.9443 8.22667 69.1443 9.48C70.3443 10.7067 70.9443 12.5867 70.9443 15.12V16L65.7443 16.48V15.92C65.7443 14.8267 65.4643 13.96 64.9043 13.32C64.3443 12.6533 63.5043 12.32 62.3843 12.32C61.2643 12.32 60.3843 12.7067 59.7443 13.48C59.1043 14.2533 58.7843 15.36 58.7843 16.8V23.2H63.3443V28H49.6643V23.2H53.7443V12.96H50.1443V8.16Z" fill="black" />
  <path d="M82.2365 15.44H83.1965L88.4765 8.16H93.9965V8.4L87.5965 17.48V18.2L94.6365 27.76V28H88.8765L83.1965 20.24H82.2365V28H77.1965V0H82.2365V15.44Z" fill="black" />
  <path d="M104.289 28H99.2487V0H104.289V11.04H105.009C105.542 9.94667 106.315 9.10667 107.329 8.52C108.342 7.90667 109.635 7.6 111.209 7.6C112.382 7.6 113.489 7.82667 114.529 8.28C115.595 8.73333 116.515 9.4 117.289 10.28C118.089 11.1333 118.715 12.1867 119.169 13.44C119.649 14.6933 119.889 16.12 119.889 17.72V18.44C119.889 20.0667 119.662 21.5067 119.209 22.76C118.755 24.0133 118.142 25.08 117.369 25.96C116.595 26.8133 115.675 27.4667 114.609 27.92C113.569 28.3467 112.435 28.56 111.209 28.56C110.302 28.56 109.515 28.4667 108.849 28.28C108.182 28.0933 107.595 27.84 107.089 27.52C106.609 27.2 106.195 26.84 105.849 26.44C105.529 26.0133 105.249 25.5733 105.009 25.12H104.289V28ZM109.569 23.76C111.142 23.76 112.409 23.28 113.369 22.32C114.355 21.3333 114.849 20 114.849 18.32V17.84C114.849 16.16 114.355 14.84 113.369 13.88C112.409 12.8933 111.142 12.4 109.569 12.4C107.995 12.4 106.715 12.9067 105.729 13.92C104.769 14.9067 104.289 16.2133 104.289 17.84V18.32C104.289 19.9467 104.769 21.2667 105.729 22.28C106.715 23.2667 107.995 23.76 109.569 23.76Z" fill="black" />
  <path d="M144.021 18.32C144.021 19.9733 143.741 21.44 143.181 22.72C142.621 23.9733 141.861 25.04 140.901 25.92C139.941 26.7733 138.834 27.4267 137.581 27.88C136.354 28.3333 135.061 28.56 133.701 28.56C132.341 28.56 131.034 28.3333 129.781 27.88C128.554 27.4267 127.461 26.7733 126.501 25.92C125.541 25.04 124.781 23.9733 124.221 22.72C123.661 21.44 123.381 19.9733 123.381 18.32V17.84C123.381 16.2133 123.661 14.7733 124.221 13.52C124.781 12.24 125.541 11.16 126.501 10.28C127.461 9.4 128.554 8.73333 129.781 8.28C131.034 7.82667 132.341 7.6 133.701 7.6C135.061 7.6 136.354 7.82667 137.581 8.28C138.834 8.73333 139.941 9.4 140.901 10.28C141.861 11.16 142.621 12.24 143.181 13.52C143.741 14.7733 144.021 16.2133 144.021 17.84V18.32ZM133.701 23.76C134.421 23.76 135.101 23.64 135.741 23.4C136.381 23.16 136.941 22.8133 137.421 22.36C137.901 21.9067 138.274 21.36 138.541 20.72C138.834 20.0533 138.981 19.3067 138.981 18.48V17.68C138.981 16.8533 138.834 16.12 138.541 15.48C138.274 14.8133 137.901 14.2533 137.421 13.8C136.941 13.3467 136.381 13 135.741 12.76C135.101 12.52 134.421 12.4 133.701 12.4C132.981 12.4 132.301 12.52 131.661 12.76C131.021 13 130.461 13.3467 129.981 13.8C129.501 14.2533 129.114 14.8133 128.821 15.48C128.554 16.12 128.421 16.8533 128.421 17.68V18.48C128.421 19.3067 128.554 20.0533 128.821 20.72C129.114 21.36 129.501 21.9067 129.981 22.36C130.461 22.8133 131.021 23.16 131.661 23.4C132.301 23.64 132.981 23.76 133.701 23.76Z" fill="black" />
  <path d="M162.233 8.16H167.793L162.993 17.48V18.2L168.073 28H162.273L158.553 20.24H157.833L154.113 28H148.313L153.393 18.2V17.48L148.553 8.16H154.153L157.833 15.44H158.553L162.233 8.16Z" fill="black" />
</svg>